<?xml version="1.0" standalone="no"?>
<!DOCTYPE svg PUBLIC "-//W3C//DTD SVG 20010904//EN"
 "http://www.w3.org/TR/2001/REC-SVG-20010904/DTD/svg10.dtd">
<svg version="1.0" xmlns="http://www.w3.org/2000/svg"
 width="236.000000pt" height="236.000000pt" viewBox="0 0 236.000000 236.000000"
 preserveAspectRatio="xMidYMid meet">
<metadata>
Created by potrace 1.14, written by Peter Selinger 2001-2017
</metadata>
<g transform="translate(0.000000,236.000000) scale(0.100000,-0.100000)"
fill="#000000" stroke="none">
<path d="M1350 2255 c0 -58 0 -108 0 -112 0 -5 25 -9 55 -11 l55 -3 0 -54 0
-55 110 0 110 0 0 -55 0 -55 60 0 60 0 0 -110 0 -109 -57 -3 -58 -3 -3 -52 -3
-53 -277 -2 -277 -3 -3 -57 -3 -58 -109 0 -110 0 0 -55 0 -55 -170 0 -170 0 0
55 0 55 -110 0 -110 0 0 -55 0 -55 -60 0 -60 0 0 -115 0 -115 61 0 60 0 -3
-52 -3 -53 -55 -1 -55 -1 -3 -56 -3 -57 -54 0 -55 0 0 -110 0 -110 -55 0 -55
0 0 -115 0 -115 55 0 55 0 0 -55 0 -55 55 0 55 0 0 -60 0 -60 115 0 115 0 0
-55 0 -55 170 0 170 0 0 55 0 55 110 0 110 0 0 -55 0 -55 55 0 55 0 0 -55 0
-55 230 0 230 0 0 54 0 55 53 3 52 3 3 53 3 52 55 0 54 0 0 115 0 115 113 0
114 0 -5 55 -4 55 61 0 61 0 0 54 0 55 53 3 52 3 3 168 2 167 -55 0 -55 0 0
113 0 112 52 0 53 0 3 113 3 112 54 0 55 0 0 170 0 170 -55 0 -55 0 0 110 0
110 -55 0 -55 0 0 60 0 60 -61 0 -60 0 2 53 3 52 -112 3 -112 3 0 54 0 55
-225 0 -225 0 0 -105z m437 -22 c-7 -6 -310 -4 -316 3 -3 3 68 4 158 3 89 0
160 -3 158 -6z m3 -38 c0 -14 -4 -25 -9 -25 -4 0 -6 11 -3 25 2 14 6 25 8 25
2 0 4 -11 4 -25z m-212 -44 c53 -1 99 -4 101 -7 3 -2 -43 -4 -102 -3 l-107 1
1 26 c1 21 3 23 6 6 4 -19 12 -21 101 -23z m209 -23 c-3 -7 -5 -2 -5 12 0 14
2 19 5 13 2 -7 2 -19 0 -25z m-90 -70 c-2 -18 -4 -4 -4 32 0 36 2 50 4 33 2
-18 2 -48 0 -65z m130 66 c-3 -3 -12 -4 -19 -1 -8 3 -5 6 6 6 11 1 17 -2 13
-5z m193 -44 c0 -27 -3 -50 -8 -50 -4 0 -6 20 -4 45 l4 44 -89 4 -88 3 93 2
92 2 0 -50z m-247 -47 c-7 -2 -19 -2 -25 0 -7 3 -2 5 12 5 14 0 19 -2 13 -5z
m37 -3 c0 -5 -2 -10 -4 -10 -3 0 -8 5 -11 10 -3 6 -1 10 4 10 6 0 11 -4 11
-10z m318 -123 l-2 -112 -3 107 -4 106 -40 -4 c-22 -2 -46 -7 -52 -11 -9 -5
-9 -3 0 8 6 8 31 15 57 16 l46 2 -2 -112z m-315 83 c-3 -11 -7 -20 -9 -20 -2
0 -4 9 -4 20 0 11 4 20 9 20 5 0 7 -9 4 -20z m31 -58 c2 -4 -7 -8 -22 -9 -16
0 -19 1 -9 4 18 5 18 5 0 19 -17 14 -16 14 4 4 12 -5 24 -14 27 -18z m88 -170
c2 -39 0 -72 -4 -72 -5 0 -7 48 -6 108 1 109 5 96 10 -36z m-795 -334 c-3 -8
-6 -5 -6 6 -1 11 2 17 5 13 3 -3 4 -12 1 -19z m540 -45 c-2 -16 -4 -5 -4 22 0
28 2 40 4 28 2 -13 2 -35 0 -50z m-507 14 c0 -5 -7 -6 -16 -3 -13 5 -15 2 -11
-14 3 -11 1 -20 -4 -20 -5 0 -9 11 -9 24 0 19 5 24 20 23 11 -1 20 -5 20 -10z
m68 -44 c-10 -2 -26 -2 -35 0 -10 3 -2 5 17 5 19 0 27 -2 18 -5z m-118 -63 l0
-50 -107 2 -108 2 103 3 102 4 0 40 0 41 -89 -4 c-49 -1 -87 0 -84 5 2 4 44 7
94 7 l89 0 0 -50z m610 41 c0 -4 -11 -6 -25 -3 -14 2 -25 6 -25 8 0 2 11 4 25
4 14 0 25 -4 25 -9z m176 -44 l1 -47 -4 45 -4 44 -77 4 -77 3 80 0 80 -1 1
-48z m-429 -24 c-2 -16 -4 -5 -4 22 0 28 2 40 4 28 2 -13 2 -35 0 -50z m71
-20 c-10 -2 -28 -2 -40 0 -13 2 -5 4 17 4 22 1 32 -1 23 -4z m-805 -20 c-13
-2 -33 -2 -45 0 -13 2 -3 4 22 4 25 0 35 -2 23 -4z m155 -104 l112 2 -1 -33
c-2 -31 -2 -31 -6 -5 l-4 28 -104 -2 c-56 -1 -108 2 -114 5 -6 4 -10 32 -9 64
l1 57 6 -59 6 -59 113 2z m442 107 c0 -2 -18 -6 -40 -8 -22 -2 -40 0 -40 4 0
5 18 8 40 8 22 0 40 -2 40 -4z m-50 -36 c8 -5 11 -10 5 -10 -5 0 -17 5 -25 10
-8 5 -10 10 -5 10 6 0 17 -5 25 -10z m302 -97 c-4 -174 -8 -191 -10 -45 -1 78
1 142 6 142 4 0 6 -44 4 -97z m-322 44 c11 -5 9 -6 -4 -4 -11 1 -21 9 -23 17
-3 10 -2 11 4 4 4 -6 15 -14 23 -17z m-67 -24 c-7 -2 -21 -2 -30 0 -10 3 -4 5
12 5 17 0 24 -2 18 -5z m240 0 c3 -5 -17 -8 -43 -8 -26 0 -46 3 -43 8 2 4 22
7 43 7 21 0 41 -3 43 -7z m-976 -25 c-3 -8 -6 -5 -6 6 -1 11 2 17 5 13 3 -3 4
-12 1 -19z m760 -40 c-2 -13 -4 -3 -4 22 0 25 2 35 4 23 2 -13 2 -33 0 -45z
m-73 36 c3 -8 2 -12 -4 -9 -6 4 -10 -6 -11 -22 0 -15 -3 -22 -6 -15 -5 13 4
62 11 62 2 0 7 -7 10 -16z m-171 -14 c-3 -12 -8 -19 -11 -16 -5 6 5 36 12 36
2 0 2 -9 -1 -20z m194 -22 c-3 -8 -6 -5 -6 6 -1 11 2 17 5 13 3 -3 4 -12 1
-19z m-167 -12 c0 -3 -4 -8 -10 -11 -5 -3 -10 -1 -10 4 0 6 5 11 10 11 6 0 10
-2 10 -4z m218 -73 l-1 -58 -6 50 c-6 48 -5 65 5 65 2 0 3 -26 2 -57z m-865
39 c-6 -4 -13 -28 -16 -52 l-4 -45 -1 53 c-2 44 1 52 16 52 11 0 13 -3 5 -8z
m44 2 c-3 -3 -12 -4 -19 -1 -8 3 -5 6 6 6 11 1 17 -2 13 -5z m686 -1 c-13 -2
-35 -2 -50 0 -16 2 -5 4 22 4 28 0 40 -2 28 -4z m-75 -157 l3 -58 52 4 52 3
-3 -117 -3 -118 -34 0 c-57 0 -65 -7 -65 -61 l0 -49 -60 0 -60 0 0 55 0 55
-58 0 -58 0 2 -42 c2 -63 -2 -68 -57 -68 l-48 0 -3 -57 -3 -58 -55 0 -55 0 -3
58 -3 57 -54 0 -55 0 0 -55 0 -55 -110 0 -110 0 0 55 0 55 -55 0 -55 0 0 58 0
58 50 -4 50 -4 0 56 0 56 170 0 170 0 0 -55 0 -56 113 3 112 3 2 35 c1 19 2
43 2 53 1 14 11 17 56 17 l55 0 0 60 0 60 -55 0 c-37 0 -55 4 -56 13 -4 36 -6
93 -3 97 1 3 53 5 116 4 l113 -1 3 -57z m-673 44 c-3 -5 0 -10 7 -10 8 0 9 -3
3 -8 -6 -4 -12 -21 -13 -39 l-2 -32 112 -3 c105 -3 102 -4 -55 -8 l-167 -5 0
58 0 57 61 0 c37 0 58 -4 54 -10z m45 0 c0 -5 -5 -10 -11 -10 -5 0 -7 5 -4 10
3 6 8 10 11 10 2 0 4 -4 4 -10z m271 -87 c-12 -20 -14 -14 -5 12 4 9 9 14 11
11 3 -2 0 -13 -6 -23z m117 -70 l-3 -58 -35 -2 c-62 -3 -70 3 -70 56 0 26 3
51 7 54 3 4 28 7 55 7 l49 0 -3 -57z m462 -562 l0 -49 -51 -4 c-28 -1 -53 -1
-55 1 -2 2 -4 26 -4 53 l0 48 55 0 55 0 0 -49z"/>
</g>
</svg>
